# xmcd CD database file
#
# Track frame offsets:
#	150
#	20886
#	44887
#	78436
#	97110
#	125815
#	150273
#	180379
#
# Disc length: 2737 seconds
#
# Revision: 0
# Processed by: cddbd v1.5.1PL2 Copyright (c) Steve Scherf et al.
# Submitted via: CDex 1.51
#
DISCID=680aaf08
DTITLE=Brad Mehldau with Renee Fleming - Creators at Carnegie 2005
DYEAR=2005
DGENRE=Jazz
TTITLE0=Brad Mehldau - Lithium
TTITLE1=Brad Mehldau - Things Behind the Sun
TTITLE2=Brad Mehldau - River Man
TTITLE3=Brad Mehldau - I Love the Dark Hours of My Being
TTITLE4=Brad Mehldau - I Love You, Gentlest of Ways
TTITLE5=Brad Mehldau - Extinguish My Eyes, I'll Go on Seeing You
TTITLE6=Brad Mehldau - How Long Has This Been Going On
TTITLE7=Brad Mehldau - But Beautiful
EXTD=YEAR: 2005
EXTT0=
EXTT1=
EXTT2=
EXTT3=
EXTT4=
EXTT5=
EXTT6=
EXTT7=
PLAYORDER=
